<svg width="48" height="48" viewBox="0 0 48 48" fill="none" xmlns="http://www.w3.org/2000/svg">
<path d="M40.84 9.16004C39.8367 8.15319 38.6445 7.35431 37.3317 6.80921C36.0189 6.26412 34.6115 5.98352 33.1901 5.98352C31.7686 5.98352 30.3612 6.26412 29.0484 6.80921C27.7357 7.35431 26.5434 8.15319 25.5401 9.16004L24.0001 10.72L22.4601 9.16004C21.4567 8.15319 20.2645 7.35431 18.9517 6.80921C17.6389 6.26412 16.2315 5.98352 14.8101 5.98352C13.3886 5.98352 11.9812 6.26412 10.6684 6.80921C9.35565 7.35431 8.16341 8.15319 7.16005 9.16004C2.92005 13.4 2.66005 20.56 8.00005 26L24.0001 42L40 26C45.34 20.56 45.08 13.4 40.84 9.16004Z" stroke="black" stroke-width="2" stroke-linecap="round" stroke-linejoin="round"/>
<path d="M24 10.72L17.74 17C16.9486 17.7979 16.5045 18.8762 16.5045 20C16.5045 21.1238 16.9486 22.2021 17.74 23C18.5379 23.7914 19.6162 24.2355 20.74 24.2355C21.8638 24.2355 22.9421 23.7914 23.74 23L28.26 18.58C29.3833 17.4685 30.8998 16.8451 32.48 16.8451C34.0603 16.8451 35.5767 17.4685 36.7 18.58L41.5 23.38" stroke="black" stroke-width="2" stroke-linecap="round" stroke-linejoin="round"/>
<path d="M36 30L32 26" stroke="black" stroke-width="2" stroke-linecap="round" stroke-linejoin="round"/>
<path d="M30 36L26 32" stroke="black" stroke-width="2" stroke-linecap="round" stroke-linejoin="round"/>
</svg>
